<?xml version="1.0" standalone="no"?>
<!DOCTYPE svg PUBLIC "-//W3C//DTD SVG 20010904//EN"
 "http://www.w3.org/TR/2001/REC-SVG-20010904/DTD/svg10.dtd">
<svg version="1.0" xmlns="http://www.w3.org/2000/svg"
 width="260.000000pt" height="260.000000pt" viewBox="0 0 260.000000 260.000000"
 preserveAspectRatio="xMidYMid meet">
<metadata>
Created by potrace 1.11, written by Peter Selinger 2001-2013
</metadata>
<g transform="translate(0.000000,260.000000) scale(0.100000,-0.100000)"
fill="#000000" stroke="none">
<path d="M1142 2239 c-11 -4 -32 -9 -48 -12 -94 -15 -214 -65 -320 -133 -73
-47 -71 -45 -154 -127 -80 -79 -146 -174 -194 -279 -98 -214 -110 -487 -31
-713 107 -306 377 -542 705 -616 68 -15 283 -21 336 -9 21 5 54 12 73 15 100
17 258 91 361 168 55 42 180 164 180 177 0 4 11 20 24 35 23 26 87 147 120
225 34 81 55 221 51 345 -4 134 -6 145 -30 235 -51 186 -185 387 -330 495 -22
16 -42 32 -45 35 -11 11 -68 42 -135 75 -140 67 -265 94 -427 92 -65 -1 -126
-4 -136 -8z"/>
</g>
</svg>
